<?xml version="1.0" encoding="UTF-8" standalone="no"?>
<!-- Created with Inkscape (http://www.inkscape.org/) -->

<svg
   xmlns:dc="http://purl.org/dc/elements/1.1/"
   xmlns:cc="http://creativecommons.org/ns#"
   xmlns:rdf="http://www.w3.org/1999/02/22-rdf-syntax-ns#"
   xmlns:svg="http://www.w3.org/2000/svg"
   xmlns="http://www.w3.org/2000/svg"
   xmlns:sodipodi="http://sodipodi.sourceforge.net/DTD/sodipodi-0.dtd"
   xmlns:inkscape="http://www.inkscape.org/namespaces/inkscape"
   width="250"
   height="250"
   viewBox="0 0 250 250"
   id="svg2"
   version="1.1"
   inkscape:version="0.91 r13725"
   sodipodi:docname="square-logo-1.svg">
  <defs
     id="defs4" />
  <sodipodi:namedview
     id="base"
     pagecolor="#ffffff"
     bordercolor="#666666"
     borderopacity="1.0"
     inkscape:pageopacity="0.0"
     inkscape:pageshadow="2"
     inkscape:zoom="0.64048223"
     inkscape:cx="283.50109"
     inkscape:cy="48.095899"
     inkscape:document-units="px"
     inkscape:current-layer="g4148"
     showgrid="false"
     units="px"
     inkscape:window-width="1366"
     inkscape:window-height="719"
     inkscape:window-x="0"
     inkscape:window-y="1"
     inkscape:window-maximized="1" />
  <metadata
     id="metadata7">
    <rdf:RDF>
      <cc:Work
         rdf:about="">
        <dc:format>image/svg+xml</dc:format>
        <dc:type
           rdf:resource="http://purl.org/dc/dcmitype/StillImage" />
        <dc:title></dc:title>
      </cc:Work>
    </rdf:RDF>
  </metadata>
  <g
     inkscape:label="Layer 1"
     inkscape:groupmode="layer"
     id="layer1"
     transform="translate(0,-802.36222)">
    <g
       id="g4148"
       transform="translate(-25.226475,277.09006)">
      <rect
         transform="scale(1,-1)"
         y="-775.27216"
         x="25.226475"
         height="250"
         width="250"
         id="rect4144"
         style="fill:#f50000;fill-opacity:1;stroke:none;stroke-width:5;stroke-miterlimit:4;stroke-dasharray:none;stroke-opacity:1" />
      <g
         style="font-style:normal;font-variant:normal;font-weight:normal;font-stretch:normal;font-size:84.52658081px;line-height:125%;font-family:Avenir;-inkscape-font-specification:'Avenir, Normal';text-align:start;letter-spacing:0px;word-spacing:0px;writing-mode:lr-tb;text-anchor:start;fill:#ffffff;fill-opacity:1;stroke:none;stroke-width:1px;stroke-linecap:butt;stroke-linejoin:miter;stroke-opacity:1"
         id="text4140">
        <path
           d="m 82.537597,573.62045 -11.411089,0 0,23.32934 q 0,2.19769 0.422633,3.63464 0.422633,1.35243 1.183372,2.11317 0.760739,0.76074 1.775058,1.09884 1.098846,0.25358 2.366745,0.25358 1.436951,0 2.95843,-0.42263 1.521478,-0.42263 2.789377,-1.09884 l 0.25358,5.15612 q -3.127484,1.43695 -7.522866,1.43695 -1.606005,0 -3.381063,-0.42263 -1.690532,-0.42264 -3.127484,-1.60601 -1.436951,-1.18337 -2.366744,-3.21201 -0.929792,-2.02864 -0.929792,-5.32517 l 0,-24.93535 -8.368132,0 0,-5.07159 8.368132,0 0,-11.15751 5.578754,0 0,11.15751 11.411089,0 0,5.07159 z"
           style="font-style:normal;font-variant:normal;font-weight:normal;font-stretch:normal;font-size:84.52658081px;line-height:125%;font-family:Avenir;-inkscape-font-specification:'Avenir, Normal';text-align:start;writing-mode:lr-tb;text-anchor:start;fill:#ffffff"
           id="path4154" />
        <path
           d="m 118.91531,585.28512 q 0,-5.66328 -3.38107,-9.12887 -3.38106,-3.55011 -9.46697,-3.55011 -2.70486,0 -5.24065,1.09884 -2.5358,1.01432 -4.479912,2.78938 -1.859585,1.77506 -3.042957,4.05727 -1.098845,2.28222 -1.098845,4.73349 l 26.710404,0 z m -26.879457,4.56444 q 0.253579,2.95843 1.436951,5.57875 1.183373,2.62033 3.127484,4.56444 1.944111,1.85958 4.479912,2.95843 2.53579,1.09884 5.49422,1.09884 4.47991,0 7.69192,-2.02863 3.29654,-2.11317 4.98707,-4.81802 l 4.31086,3.55012 q -3.55012,4.47991 -7.86097,6.42402 -4.22633,1.94411 -9.12888,1.94411 -4.39538,0 -8.199074,-1.52148 -3.719169,-1.606 -6.42402,-4.39538 -2.704851,-2.78938 -4.310856,-6.59308 -1.521478,-3.80369 -1.521478,-8.2836 0,-4.47991 1.521478,-8.28361 1.521479,-3.80369 4.226329,-6.59307 2.704851,-2.78938 6.339494,-4.31085 3.634647,-1.60601 7.860977,-1.60601 4.4799,0 8.03002,1.60601 3.55012,1.606 5.91686,4.31085 2.45127,2.62033 3.71917,6.25497 1.2679,3.55012 1.2679,7.60739 l 0,2.5358 -32.965367,0 z"
           style="font-style:normal;font-variant:normal;font-weight:normal;font-stretch:normal;font-size:84.52658081px;line-height:125%;font-family:Avenir;-inkscape-font-specification:'Avenir, Normal';text-align:start;writing-mode:lr-tb;text-anchor:start;fill:#ffffff"
           id="path4156" />
        <path
           d="m 167.09372,588.32808 q 0,-3.29654 -1.09885,-6.17044 -1.01432,-2.8739 -2.95843,-4.98707 -1.94411,-2.11316 -4.73349,-3.29654 -2.70485,-1.26789 -6.17044,-1.26789 -3.46559,0 -6.25496,1.26789 -2.70486,1.18338 -4.64897,3.29654 -1.85958,2.11317 -2.95843,4.98707 -1.01432,2.8739 -1.01432,6.17044 0,3.29654 1.01432,6.17044 1.09885,2.8739 2.95843,4.98707 1.94411,2.11316 4.64897,3.38106 2.78937,1.18337 6.25496,1.18337 3.46559,0 6.17044,-1.18337 2.78938,-1.2679 4.73349,-3.38106 1.94411,-2.11317 2.95843,-4.98707 1.09885,-2.8739 1.09885,-6.17044 z m 6.08591,0 q 0,4.47991 -1.606,8.2836 -1.52148,3.8037 -4.31086,6.59308 -2.78938,2.78938 -6.6776,4.39538 -3.8037,1.52148 -8.45266,1.52148 -4.56443,0 -8.45266,-1.52148 -3.80369,-1.606 -6.59307,-4.39538 -2.78938,-2.78938 -4.39538,-6.59308 -1.52148,-3.80369 -1.52148,-8.2836 0,-4.47991 1.52148,-8.28361 1.606,-3.80369 4.39538,-6.59307 2.78938,-2.78938 6.59307,-4.31085 3.88823,-1.60601 8.45266,-1.60601 4.64896,0 8.45266,1.60601 3.88822,1.52147 6.6776,4.31085 2.78938,2.78938 4.31086,6.59307 1.606,3.8037 1.606,8.28361 z"
           style="font-style:normal;font-variant:normal;font-weight:normal;font-stretch:normal;font-size:84.52658081px;line-height:125%;font-family:Avenir;-inkscape-font-specification:'Avenir, Normal';text-align:start;writing-mode:lr-tb;text-anchor:start;fill:#ffffff"
           id="path4158" />
      </g>
    </g>
  </g>
</svg>
